<mxfile host="app.diagrams.net" modified="2023-11-29T12:04:09.626Z" agent="Mozilla/5.0 (Windows NT 10.0; Win64; x64) AppleWebKit/537.36 (KHTML, like Gecko) Chrome/119.0.0.0 Safari/537.36" etag="tlA3KvNgxtAP0swgkbRO" version="22.1.4" type="device">
  <diagram name="Page-1" id="N_7kG34JEE4PK7xXdlOA">
    <mxGraphModel dx="1874" dy="446" grid="1" gridSize="10" guides="1" tooltips="1" connect="1" arrows="1" fold="1" page="1" pageScale="1" pageWidth="1000" pageHeight="700" math="0" shadow="0">
      <root>
        <mxCell id="0" />
        <mxCell id="1" parent="0" />
        <mxCell id="dGKRtirma01zwXu8ZEKp-13" style="edgeStyle=orthogonalEdgeStyle;rounded=0;orthogonalLoop=1;jettySize=auto;html=1;exitX=1;exitY=0.75;exitDx=0;exitDy=0;" parent="1" source="dGKRtirma01zwXu8ZEKp-1" target="dGKRtirma01zwXu8ZEKp-4" edge="1">
          <mxGeometry relative="1" as="geometry" />
        </mxCell>
        <mxCell id="dGKRtirma01zwXu8ZEKp-33" value="Delivery Order" style="edgeLabel;html=1;align=center;verticalAlign=middle;resizable=0;points=[];" parent="dGKRtirma01zwXu8ZEKp-13" vertex="1" connectable="0">
          <mxGeometry x="-0.6055" y="1" relative="1" as="geometry">
            <mxPoint x="29" as="offset" />
          </mxGeometry>
        </mxCell>
        <mxCell id="dGKRtirma01zwXu8ZEKp-22" style="edgeStyle=orthogonalEdgeStyle;rounded=0;orthogonalLoop=1;jettySize=auto;html=1;exitX=0.5;exitY=1;exitDx=0;exitDy=0;entryX=0.75;entryY=1;entryDx=0;entryDy=0;" parent="1" source="dGKRtirma01zwXu8ZEKp-1" target="dGKRtirma01zwXu8ZEKp-8" edge="1">
          <mxGeometry relative="1" as="geometry">
            <Array as="points">
              <mxPoint x="65" y="600" />
              <mxPoint x="793" y="600" />
            </Array>
          </mxGeometry>
        </mxCell>
        <mxCell id="dGKRtirma01zwXu8ZEKp-35" value="Check Out" style="edgeLabel;html=1;align=center;verticalAlign=middle;resizable=0;points=[];" parent="dGKRtirma01zwXu8ZEKp-22" vertex="1" connectable="0">
          <mxGeometry x="0.0238" y="-1" relative="1" as="geometry">
            <mxPoint as="offset" />
          </mxGeometry>
        </mxCell>
        <mxCell id="dGKRtirma01zwXu8ZEKp-1" value="Order" style="rounded=1;whiteSpace=wrap;html=1;" parent="1" vertex="1">
          <mxGeometry x="20" y="350" width="90" height="40" as="geometry" />
        </mxCell>
        <mxCell id="dGKRtirma01zwXu8ZEKp-16" style="edgeStyle=orthogonalEdgeStyle;rounded=0;orthogonalLoop=1;jettySize=auto;html=1;entryX=0.5;entryY=1;entryDx=0;entryDy=0;" parent="1" source="dGKRtirma01zwXu8ZEKp-2" target="dGKRtirma01zwXu8ZEKp-6" edge="1">
          <mxGeometry relative="1" as="geometry" />
        </mxCell>
        <mxCell id="dGKRtirma01zwXu8ZEKp-30" value="Data Product" style="edgeLabel;html=1;align=center;verticalAlign=middle;resizable=0;points=[];" parent="dGKRtirma01zwXu8ZEKp-16" vertex="1" connectable="0">
          <mxGeometry x="-0.538" y="-3" relative="1" as="geometry">
            <mxPoint as="offset" />
          </mxGeometry>
        </mxCell>
        <mxCell id="dGKRtirma01zwXu8ZEKp-27" style="edgeStyle=orthogonalEdgeStyle;rounded=0;orthogonalLoop=1;jettySize=auto;html=1;exitX=0;exitY=0;exitDx=0;exitDy=0;entryX=0;entryY=0.5;entryDx=0;entryDy=0;" parent="1" source="dGKRtirma01zwXu8ZEKp-2" target="dGKRtirma01zwXu8ZEKp-1" edge="1">
          <mxGeometry relative="1" as="geometry">
            <Array as="points">
              <mxPoint x="222" y="230" />
              <mxPoint y="230" />
              <mxPoint y="370" />
            </Array>
          </mxGeometry>
        </mxCell>
        <mxCell id="dGKRtirma01zwXu8ZEKp-28" value="Product Information" style="edgeLabel;html=1;align=center;verticalAlign=middle;resizable=0;points=[];" parent="dGKRtirma01zwXu8ZEKp-27" vertex="1" connectable="0">
          <mxGeometry x="-0.0956" relative="1" as="geometry">
            <mxPoint as="offset" />
          </mxGeometry>
        </mxCell>
        <mxCell id="dGKRtirma01zwXu8ZEKp-2" value="shopping&lt;br&gt;cart" style="ellipse;whiteSpace=wrap;html=1;aspect=fixed;" parent="1" vertex="1">
          <mxGeometry x="210" y="240" width="80" height="80" as="geometry" />
        </mxCell>
        <mxCell id="dGKRtirma01zwXu8ZEKp-21" style="edgeStyle=orthogonalEdgeStyle;rounded=0;orthogonalLoop=1;jettySize=auto;html=1;exitX=1;exitY=0.5;exitDx=0;exitDy=0;entryX=0.5;entryY=1;entryDx=0;entryDy=0;" parent="1" source="dGKRtirma01zwXu8ZEKp-4" target="dGKRtirma01zwXu8ZEKp-7" edge="1">
          <mxGeometry relative="1" as="geometry" />
        </mxCell>
        <mxCell id="dGKRtirma01zwXu8ZEKp-4" value="delivery&amp;nbsp;&lt;br&gt;data" style="ellipse;whiteSpace=wrap;html=1;aspect=fixed;" parent="1" vertex="1">
          <mxGeometry x="220" y="440" width="80" height="80" as="geometry" />
        </mxCell>
        <mxCell id="dGKRtirma01zwXu8ZEKp-5" value="Order" style="rounded=1;whiteSpace=wrap;html=1;" parent="1" vertex="1">
          <mxGeometry x="350" y="372.5" width="90" height="37.5" as="geometry" />
        </mxCell>
        <mxCell id="dGKRtirma01zwXu8ZEKp-17" style="edgeStyle=orthogonalEdgeStyle;rounded=0;orthogonalLoop=1;jettySize=auto;html=1;entryX=0.5;entryY=0;entryDx=0;entryDy=0;" parent="1" source="dGKRtirma01zwXu8ZEKp-6" target="dGKRtirma01zwXu8ZEKp-2" edge="1">
          <mxGeometry relative="1" as="geometry" />
        </mxCell>
        <mxCell id="dGKRtirma01zwXu8ZEKp-29" value="Product Information" style="edgeLabel;html=1;align=center;verticalAlign=middle;resizable=0;points=[];" parent="dGKRtirma01zwXu8ZEKp-17" vertex="1" connectable="0">
          <mxGeometry x="-0.2571" y="-2" relative="1" as="geometry">
            <mxPoint as="offset" />
          </mxGeometry>
        </mxCell>
        <mxCell id="dGKRtirma01zwXu8ZEKp-6" value="Products" style="rounded=1;whiteSpace=wrap;html=1;" parent="1" vertex="1">
          <mxGeometry x="430" y="140" width="130" height="50" as="geometry" />
        </mxCell>
        <mxCell id="dGKRtirma01zwXu8ZEKp-19" style="edgeStyle=orthogonalEdgeStyle;rounded=0;orthogonalLoop=1;jettySize=auto;html=1;exitX=0.5;exitY=0;exitDx=0;exitDy=0;entryX=0;entryY=0.5;entryDx=0;entryDy=0;" parent="1" source="dGKRtirma01zwXu8ZEKp-7" target="dGKRtirma01zwXu8ZEKp-9" edge="1">
          <mxGeometry relative="1" as="geometry" />
        </mxCell>
        <mxCell id="dGKRtirma01zwXu8ZEKp-37" value="Data Order" style="edgeLabel;html=1;align=center;verticalAlign=middle;resizable=0;points=[];" parent="dGKRtirma01zwXu8ZEKp-19" vertex="1" connectable="0">
          <mxGeometry x="0.1819" y="-1" relative="1" as="geometry">
            <mxPoint as="offset" />
          </mxGeometry>
        </mxCell>
        <mxCell id="dGKRtirma01zwXu8ZEKp-25" style="edgeStyle=orthogonalEdgeStyle;rounded=0;orthogonalLoop=1;jettySize=auto;html=1;exitX=0;exitY=1;exitDx=0;exitDy=0;entryX=0.25;entryY=1;entryDx=0;entryDy=0;" parent="1" source="dGKRtirma01zwXu8ZEKp-7" target="dGKRtirma01zwXu8ZEKp-5" edge="1">
          <mxGeometry relative="1" as="geometry">
            <Array as="points">
              <mxPoint x="542" y="450" />
              <mxPoint x="383" y="450" />
            </Array>
          </mxGeometry>
        </mxCell>
        <mxCell id="dGKRtirma01zwXu8ZEKp-32" value="Payment Status" style="edgeLabel;html=1;align=center;verticalAlign=middle;resizable=0;points=[];" parent="dGKRtirma01zwXu8ZEKp-25" vertex="1" connectable="0">
          <mxGeometry x="0.1453" y="-1" relative="1" as="geometry">
            <mxPoint as="offset" />
          </mxGeometry>
        </mxCell>
        <mxCell id="dGKRtirma01zwXu8ZEKp-38" style="edgeStyle=orthogonalEdgeStyle;rounded=0;orthogonalLoop=1;jettySize=auto;html=1;exitX=1;exitY=0;exitDx=0;exitDy=0;entryX=0.5;entryY=0;entryDx=0;entryDy=0;" parent="1" source="dGKRtirma01zwXu8ZEKp-7" target="dGKRtirma01zwXu8ZEKp-8" edge="1">
          <mxGeometry relative="1" as="geometry" />
        </mxCell>
        <mxCell id="dGKRtirma01zwXu8ZEKp-7" value="Check Out" style="ellipse;whiteSpace=wrap;html=1;aspect=fixed;" parent="1" vertex="1">
          <mxGeometry x="530" y="320" width="90" height="90" as="geometry" />
        </mxCell>
        <mxCell id="dGKRtirma01zwXu8ZEKp-23" style="edgeStyle=orthogonalEdgeStyle;rounded=0;orthogonalLoop=1;jettySize=auto;html=1;exitX=0.25;exitY=1;exitDx=0;exitDy=0;entryX=0.75;entryY=1;entryDx=0;entryDy=0;" parent="1" source="dGKRtirma01zwXu8ZEKp-8" target="dGKRtirma01zwXu8ZEKp-1" edge="1">
          <mxGeometry relative="1" as="geometry">
            <Array as="points">
              <mxPoint x="738" y="550" />
              <mxPoint x="88" y="550" />
            </Array>
          </mxGeometry>
        </mxCell>
        <mxCell id="dGKRtirma01zwXu8ZEKp-34" value="Check Out Information" style="edgeLabel;html=1;align=center;verticalAlign=middle;resizable=0;points=[];" parent="dGKRtirma01zwXu8ZEKp-23" vertex="1" connectable="0">
          <mxGeometry x="0.3375" y="3" relative="1" as="geometry">
            <mxPoint x="195" y="-4" as="offset" />
          </mxGeometry>
        </mxCell>
        <mxCell id="dGKRtirma01zwXu8ZEKp-8" value="Ordering Details" style="rounded=1;whiteSpace=wrap;html=1;" parent="1" vertex="1">
          <mxGeometry x="710" y="360" width="110" height="40" as="geometry" />
        </mxCell>
        <mxCell id="dGKRtirma01zwXu8ZEKp-18" style="edgeStyle=orthogonalEdgeStyle;rounded=0;orthogonalLoop=1;jettySize=auto;html=1;exitX=0.75;exitY=0;exitDx=0;exitDy=0;entryX=0;entryY=0;entryDx=0;entryDy=0;" parent="1" source="dGKRtirma01zwXu8ZEKp-9" target="dGKRtirma01zwXu8ZEKp-7" edge="1">
          <mxGeometry relative="1" as="geometry" />
        </mxCell>
        <mxCell id="dGKRtirma01zwXu8ZEKp-36" value="Order Information" style="edgeLabel;html=1;align=center;verticalAlign=middle;resizable=0;points=[];" parent="dGKRtirma01zwXu8ZEKp-18" vertex="1" connectable="0">
          <mxGeometry x="-0.156" relative="1" as="geometry">
            <mxPoint x="-1" as="offset" />
          </mxGeometry>
        </mxCell>
        <mxCell id="dGKRtirma01zwXu8ZEKp-9" value="Order" style="rounded=1;whiteSpace=wrap;html=1;" parent="1" vertex="1">
          <mxGeometry x="710" y="240" width="100" height="40" as="geometry" />
        </mxCell>
        <mxCell id="dGKRtirma01zwXu8ZEKp-10" value="" style="endArrow=classic;html=1;rounded=0;exitX=0.25;exitY=0;exitDx=0;exitDy=0;entryX=0;entryY=0.5;entryDx=0;entryDy=0;" parent="1" source="dGKRtirma01zwXu8ZEKp-1" target="dGKRtirma01zwXu8ZEKp-2" edge="1">
          <mxGeometry width="50" height="50" relative="1" as="geometry">
            <mxPoint x="39.99999999999987" y="335.15999999999997" as="sourcePoint" />
            <mxPoint x="194.5100000000001" y="280" as="targetPoint" />
            <Array as="points">
              <mxPoint x="42.11" y="280.4" />
            </Array>
          </mxGeometry>
        </mxCell>
        <mxCell id="dGKRtirma01zwXu8ZEKp-11" value="Product Data Order" style="edgeLabel;html=1;align=center;verticalAlign=middle;resizable=0;points=[];" parent="dGKRtirma01zwXu8ZEKp-10" vertex="1" connectable="0">
          <mxGeometry x="0.0183" y="1" relative="1" as="geometry">
            <mxPoint x="53" y="1" as="offset" />
          </mxGeometry>
        </mxCell>
        <mxCell id="dGKRtirma01zwXu8ZEKp-20" style="edgeStyle=orthogonalEdgeStyle;rounded=0;orthogonalLoop=1;jettySize=auto;html=1;exitX=0.5;exitY=0;exitDx=0;exitDy=0;entryX=0.125;entryY=0.375;entryDx=0;entryDy=0;entryPerimeter=0;" parent="1" source="dGKRtirma01zwXu8ZEKp-5" target="dGKRtirma01zwXu8ZEKp-7" edge="1">
          <mxGeometry relative="1" as="geometry" />
        </mxCell>
        <mxCell id="dGKRtirma01zwXu8ZEKp-31" value="Payment Data" style="edgeLabel;html=1;align=center;verticalAlign=middle;resizable=0;points=[];" parent="dGKRtirma01zwXu8ZEKp-20" vertex="1" connectable="0">
          <mxGeometry x="-0.0932" relative="1" as="geometry">
            <mxPoint as="offset" />
          </mxGeometry>
        </mxCell>
        <mxCell id="dGKRtirma01zwXu8ZEKp-39" style="edgeStyle=orthogonalEdgeStyle;rounded=0;orthogonalLoop=1;jettySize=auto;html=1;exitX=0;exitY=0.5;exitDx=0;exitDy=0;entryX=0.983;entryY=0.65;entryDx=0;entryDy=0;entryPerimeter=0;" parent="1" source="dGKRtirma01zwXu8ZEKp-8" target="dGKRtirma01zwXu8ZEKp-7" edge="1">
          <mxGeometry relative="1" as="geometry" />
        </mxCell>
        <mxCell id="dGKRtirma01zwXu8ZEKp-40" value="Detail Booking&lt;br&gt;&amp;nbsp;Inforamtion" style="edgeLabel;html=1;align=center;verticalAlign=middle;resizable=0;points=[];" parent="dGKRtirma01zwXu8ZEKp-39" vertex="1" connectable="0">
          <mxGeometry x="-0.1454" y="-2" relative="1" as="geometry">
            <mxPoint as="offset" />
          </mxGeometry>
        </mxCell>
      </root>
    </mxGraphModel>
  </diagram>
</mxfile>
